<svg xmlns="http://www.w3.org/2000/svg" xmlns:xlink="http://www.w3.org/1999/xlink" width="107.80000000000001" height="172.8" viewBox="79.6 23.6 107.80000000000001 172.8" preserveAspectRatio="xMinYMin meet"><g transform="matrix(1,0,0,-1,0,220.0)"><g><path fill-rule="evenodd" fill="#66cc99" stroke="#555555" stroke-width="2.0" opacity="0.6" d="M 180.98078528040324,30.804909677983872 L 180.9569403357322,30.709715322745538 L 180.92387953251128,30.61731656763491 L 180.88192126434836,30.528603263174002 L 180.83146961230256,30.4444297669804 L 180.77301045336273,30.365606715836353 L 180.70710678118655,30.29289321881345 L 180.63439328416365,30.226989546637263 L 180.5555702330196,30.168530387697455 L 180.471396736826,30.118078735651643 L 180.3826834323651,30.076120467488714 L 180.29028467725448,30.04305966426779 L 180.19509032201614,30.019214719596768 L 180.09801714032957,30.004815273327804 L 180.0,30.0 L 132.0,30.0 L 131.0,30.0 L 131.09801714032957,30.004815273327804 L 131.1950903220161,30.019214719596768 L 131.29028467725448,30.04305966426779 L 131.3826834323651,30.076120467488714 L 131.471396736826,30.118078735651643 L 131.5,30.135222871826176 L 131.4444297669804,30.168530387697455 L 131.36560671583635,30.226989546637263 L 131.29289321881345,30.29289321881345 L 131.22698954663727,30.365606715836353 L 131.16853038769744,30.444429766980395 L 131.11807873565164,30.528603263174 L 131.07612046748872,30.61731656763491 L 131.0430596642678,30.709715322745534 L 131.01921471959676,30.80490967798387 L 131.0048152733278,30.901982859670436 L 131.0,30.999999999999996 L 131.0,31.0 L 131.0,32.0 L 131.0,67.0 L 131.0,72.0 L 131.0048152733278,71.90198285967044 L 131.01921471959676,71.80490967798387 L 131.0430596642678,71.70971532274554 L 131.07612046748872,71.6173165676349 L 131.11807873565164,71.528603263174 L 131.16853038769744,71.44442976698039 L 131.22698954663727,71.36560671583635 L 131.29289321881345,71.29289321881345 L 131.36560671583635,71.22698954663726 L 131.4444297669804,71.16853038769746 L 131.528603263174,71.11807873565165 L 131.6173165676349,71.0761204674887 L 131.70971532274555,71.04305966426779 L 131.8049096779839,71.01921471959677 L 131.90198285967043,71.00481527332781 L 132.0,71.0 L 132.09801714032957,71.00481527332781 L 132.19509032201614,71.01921471959677 L 132.29028467725448,71.04305966426779 L 132.3826834323651,71.0761204674887 L 132.471396736826,71.11807873565165 L 132.5555702330196,71.16853038769746 L 132.63439328416365,71.22698954663726 L 132.70710678118655,71.29289321881345 L 132.77301045336273,71.36560671583635 L 132.83146961230256,71.44442976698039 L 132.88192126434836,71.528603263174 L 132.92387953251128,71.61731656763492 L 132.9569403357322,71.70971532274554 L 132.98078528040324,71.80490967798387 L 132.9951847266722,71.90198285967044 L 133.0,72.0 L 133.0,68.0 L 133.0,67.0 L 133.0,66.0 L 133.0,32.0 L 179.0,32.0 L 179.0,66.0 L 154.0,66.0 L 154.09801714032957,66.00481527332781 L 154.1950903220161,66.01921471959677 L 154.29028467725448,66.04305966426779 L 154.3826834323651,66.0761204674887 L 154.471396736826,66.11807873565165 L 154.5555702330196,66.16853038769746 L 154.63439328416365,66.22698954663727 L 154.70710678118655,66.29289321881345 L 154.77301045336273,66.36560671583635 L 154.83146961230256,66.44442976698039 L 154.88192126434836,66.528603263174 L 154.92387953251128,66.61731656763492 L 154.9569403357322,66.70971532274554 L 154.98078528040324,66.80490967798387 L 154.9951847266722,66.90198285967044 L 155.0,67.0 L 154.9951847266722,67.09801714032956 L 154.98078528040324,67.19509032201613 L 154.9569403357322,67.29028467725446 L 154.92387953251128,67.38268343236508 L 154.88192126434836,67.471396736826 L 154.83146961230256,67.55557023301961 L 154.77301045336273,67.63439328416365 L 154.70710678118655,67.70710678118655 L 154.63439328416365,67.77301045336273 L 154.5555702330196,67.83146961230254 L 154.471396736826,67.88192126434835 L 154.3826834323651,67.9238795325113 L 154.29028467725448,67.95694033573221 L 154.19509032201614,67.98078528040323 L 154.09801714032957,67.99518472667219 L 154.0,68.0 L 179.0,68.0 L 179.0,106.0 L 149.0,106.0 L 149.09801714032957,106.00481527332781 L 149.1950903220161,106.01921471959677 L 149.29028467725448,106.04305966426779 L 149.3826834323651,106.0761204674887 L 149.471396736826,106.11807873565165 L 149.5555702330196,106.16853038769746 L 149.63439328416365,106.22698954663727 L 149.70710678118655,106.29289321881345 L 149.77301045336273,106.36560671583635 L 149.83146961230256,106.44442976698039 L 149.88192126434836,106.528603263174 L 149.92387953251128,106.61731656763492 L 149.9569403357322,106.70971532274554 L 149.98078528040324,106.80490967798387 L 149.9951847266722,106.90198285967044 L 150.0,107.0 L 149.9951847266722,107.09801714032956 L 149.98078528040324,107.19509032201613 L 149.9569403357322,107.29028467725446 L 149.92387953251128,107.38268343236508 L 149.88192126434836,107.471396736826 L 149.83146961230256,107.55557023301961 L 149.77301045336273,107.63439328416365 L 149.70710678118655,107.70710678118655 L 149.63439328416365,107.77301045336273 L 149.5555702330196,107.83146961230254 L 149.471396736826,107.88192126434835 L 149.3826834323651,107.9238795325113 L 149.29028467725448,107.95694033573221 L 149.19509032201614,107.98078528040323 L 149.09801714032957,107.99518472667219 L 149.0,108.0 L 179.0,108.0 L 179.0,188.0 L 164.0,188.0 L 164.09801714032957,188.0048152733278 L 164.1950903220161,188.01921471959676 L 164.29028467725448,188.0430596642678 L 164.3826834323651,188.07612046748872 L 164.471396736826,188.11807873565164 L 164.5555702330196,188.16853038769744 L 164.63439328416365,188.22698954663727 L 164.70710678118655,188.29289321881345 L 164.77301045336273,188.36560671583635 L 164.83146961230256,188.4444297669804 L 164.88192126434836,188.528603263174 L 164.92387953251128,188.6173165676349 L 164.9569403357322,188.70971532274552 L 164.98078528040324,188.80490967798386 L 164.9951847266722,188.90198285967043 L 165.0,189.0 L 164.9951847266722,189.09801714032957 L 164.98078528040324,189.19509032201614 L 164.9569403357322,189.29028467725448 L 164.92387953251128,189.3826834323651 L 164.88192126434836,189.471396736826 L 164.83146961230256,189.5555702330196 L 164.77301045336273,189.63439328416365 L 164.70710678118655,189.70710678118655 L 164.63439328416365,189.77301045336273 L 164.5555702330196,189.83146961230256 L 164.471396736826,189.88192126434836 L 164.3826834323651,189.92387953251128 L 164.29028467725448,189.9569403357322 L 164.19509032201614,189.98078528040324 L 164.09801714032957,189.9951847266722 L 164.0,190.0 L 180.0,190.0 L 180.09801714032957,189.9951847266722 L 180.19509032201614,189.98078528040324 L 180.29028467725448,189.9569403357322 L 180.3826834323651,189.92387953251128 L 180.471396736826,189.88192126434836 L 180.5555702330196,189.83146961230256 L 180.63439328416365,189.77301045336273 L 180.70710678118655,189.70710678118655 L 180.77301045336273,189.63439328416365 L 180.83146961230256,189.5555702330196 L 180.88192126434836,189.471396736826 L 180.92387953251128,189.3826834323651 L 180.9569403357322,189.29028467725448 L 180.98078528040324,189.19509032201614 L 180.9951847266722,189.09801714032957 L 181.0,189.0 L 181.0,107.0 L 181.0,67.0 L 181.0,31.0 L 180.9951847266722,30.901982859670436 L 180.98078528040324,30.804909677983872 z" /><path fill-rule="evenodd" fill="#66cc99" stroke="#555555" stroke-width="2.0" opacity="0.6" d="M 108.0,30.0 L 98.0,30.0 L 97.90198285967044,30.004815273327804 L 97.80490967798387,30.019214719596768 L 97.70971532274554,30.04305966426779 L 97.61731656763492,30.076120467488714 L 97.528603263174,30.118078735651643 L 97.50384001002396,30.132921258392706 L 97.44442976698039,30.168530387697455 L 97.36560671583635,30.226989546637263 L 97.29289321881345,30.29289321881345 L 97.28071389541333,30.306331031404955 L 97.22698954663726,30.365606715836353 L 97.17767537043167,30.432099185171776 L 97.16853038769746,30.444429766980395 L 97.11807873565165,30.528603263174 L 97.1131172101336,30.539093527504388 L 97.0761204674887,30.617316567634912 L 97.04601854064587,30.701445817251816 L 97.04305966426779,30.709715322745534 L 97.01921471959677,30.80490967798387 L 97.00481527332781,30.901982859670436 L 97.0,30.999999999999996 L 97.0,31.0 L 97.0,47.0 L 87.0,47.0 L 86.90198285967044,47.0048152733278 L 86.80490967798387,47.01921471959677 L 86.70971532274554,47.043059664267794 L 86.61731656763492,47.076120467488714 L 86.528603263174,47.11807873565164 L 86.44442976698039,47.16853038769746 L 86.36560671583635,47.22698954663726 L 86.29289321881345,47.292893218813454 L 86.22698954663726,47.36560671583636 L 86.16853038769746,47.4444297669804 L 86.11807873565165,47.528603263174 L 86.11005180966305,47.545574772254106 L 86.0761204674887,47.61731656763491 L 86.04807897949068,47.69568727645143 L 86.04305966426779,47.70971532274553 L 86.01921471959677,47.804909677983865 L 86.00481527332781,47.90198285967043 L 86.0,47.99999999999999 L 86.0,48.0 L 86.0,101.0 L 86.0,136.0 L 86.0,189.0 L 86.00481527332781,189.09801714032957 L 86.01921471959677,189.19509032201614 L 86.04305966426779,189.29028467725448 L 86.0761204674887,189.3826834323651 L 86.11807873565165,189.471396736826 L 86.16853038769746,189.5555702330196 L 86.22698954663726,189.63439328416365 L 86.29289321881345,189.70710678118655 L 86.36560671583635,189.77301045336273 L 86.44442976698039,189.83146961230256 L 86.528603263174,189.88192126434836 L 86.6173165676349,189.92387953251128 L 86.70971532274554,189.9569403357322 L 86.80490967798387,189.98078528040324 L 86.90198285967044,189.9951847266722 L 87.0,190.0 L 107.0,190.0 L 106.90198285967044,189.9951847266722 L 106.80490967798387,189.98078528040324 L 106.70971532274554,189.9569403357322 L 106.6173165676349,189.92387953251128 L 106.528603263174,189.88192126434836 L 106.44442976698039,189.83146961230256 L 106.36560671583635,189.77301045336273 L 106.29289321881345,189.70710678118655 L 106.22698954663726,189.63439328416365 L 106.16853038769746,189.5555702330196 L 106.11807873565165,189.471396736826 L 106.0761204674887,189.3826834323651 L 106.04305966426779,189.29028467725448 L 106.01921471959677,189.19509032201614 L 106.00481527332781,189.09801714032957 L 106.0,189.0 L 106.00481527332781,188.90198285967043 L 106.01921471959677,188.8049096779839 L 106.04305966426779,188.70971532274552 L 106.0761204674887,188.6173165676349 L 106.11807873565165,188.528603263174 L 106.16853038769746,188.4444297669804 L 106.22698954663726,188.36560671583635 L 106.29289321881345,188.29289321881345 L 106.36560671583635,188.22698954663727 L 106.44442976698039,188.16853038769744 L 106.528603263174,188.11807873565164 L 106.61731656763492,188.07612046748872 L 106.70971532274554,188.0430596642678 L 106.80490967798387,188.01921471959676 L 106.90198285967044,188.0048152733278 L 107.0,188.0 L 88.0,188.0 L 88.0,137.0 L 103.0,137.0 L 103.09801714032956,136.9951847266722 L 103.19509032201613,136.98078528040324 L 103.29028467725446,136.9569403357322 L 103.38268343236508,136.92387953251128 L 103.471396736826,136.88192126434836 L 103.55557023301961,136.83146961230256 L 103.63439328416365,136.77301045336273 L 103.70710678118655,136.70710678118655 L 103.77301045336274,136.63439328416365 L 103.83146961230254,136.5555702330196 L 103.88192126434835,136.471396736826 L 103.9238795325113,136.3826834323651 L 103.95694033573221,136.29028467725448 L 103.98078528040323,136.19509032201614 L 103.99518472667219,136.09801714032957 L 104.0,136.0 L 104.0,133.0 L 103.99518472667219,133.09801714032957 L 103.98078528040323,133.19509032201614 L 103.95694033573221,133.29028467725448 L 103.92387953251128,133.3826834323651 L 103.88192126434835,133.471396736826 L 103.83146961230254,133.5555702330196 L 103.77301045336273,133.63439328416365 L 103.70710678118655,133.70710678118655 L 103.63439328416365,133.77301045336273 L 103.55557023301961,133.83146961230256 L 103.471396736826,133.88192126434836 L 103.38268343236508,133.92387953251128 L 103.29028467725446,133.9569403357322 L 103.19509032201613,133.98078528040324 L 103.09801714032956,133.9951847266722 L 103.0,134.0 L 102.90198285967044,133.9951847266722 L 102.80490967798387,133.98078528040324 L 102.70971532274554,133.9569403357322 L 102.61731656763492,133.92387953251128 L 102.528603263174,133.88192126434836 L 102.44442976698039,133.83146961230256 L 102.36560671583635,133.77301045336273 L 102.29289321881345,133.70710678118655 L 102.22698954663727,133.63439328416365 L 102.16853038769746,133.5555702330196 L 102.11807873565165,133.471396736826 L 102.0761204674887,133.3826834323651 L 102.04305966426779,133.29028467725448 L 102.01921471959677,133.19509032201614 L 102.00481527332781,133.09801714032957 L 102.0,133.0 L 102.0,135.0 L 88.0,135.0 L 88.0,102.0 L 102.0,102.0 L 103.0,102.0 L 104.0,102.0 L 108.0,102.0 L 107.90198285967044,101.99518472667219 L 107.80490967798387,101.98078528040323 L 107.70971532274554,101.95694033573221 L 107.6173165676349,101.92387953251128 L 107.528603263174,101.88192126434835 L 107.44442976698039,101.83146961230254 L 107.36560671583635,101.77301045336273 L 107.29289321881345,101.70710678118655 L 107.22698954663726,101.63439328416365 L 107.16853038769746,101.55557023301961 L 107.11807873565165,101.471396736826 L 107.0761204674887,101.38268343236508 L 107.04305966426779,101.29028467725446 L 107.01921471959677,101.19509032201613 L 107.00481527332781,101.09801714032956 L 107.0,101.0 L 107.00481527332781,100.90198285967044 L 107.01921471959677,100.80490967798387 L 107.04305966426779,100.70971532274554 L 107.0761204674887,100.61731656763492 L 107.11807873565165,100.528603263174 L 107.16853038769746,100.44442976698039 L 107.22698954663726,100.36560671583635 L 107.29289321881345,100.29289321881345 L 107.36560671583635,100.22698954663727 L 107.44442976698039,100.16853038769746 L 107.528603263174,100.11807873565165 L 107.61731656763492,100.0761204674887 L 107.70971532274554,100.04305966426779 L 107.80490967798387,100.01921471959677 L 107.90198285967044,100.00481527332781 L 108.0,100.0 L 103.0,100.0 L 88.0,100.0 L 88.0,49.0 L 98.0,49.0 L 98.09801714032956,48.9951847266722 L 98.19509032201613,48.98078528040323 L 98.29028467725446,48.956940335732206 L 98.38268343236508,48.923879532511286 L 98.471396736826,48.88192126434836 L 98.55557023301961,48.83146961230255 L 98.63439328416365,48.77301045336274 L 98.70710678118655,48.707106781186546 L 98.77301045336274,48.63439328416364 L 98.83146961230254,48.5555702330196 L 98.88192126434835,48.471396736826 L 98.88994819033695,48.454425227745894 L 98.9238795325113,48.38268343236509 L 98.95192102050932,48.30431272354857 L 98.95694033573221,48.29028467725447 L 98.98078528040323,48.195090322016135 L 98.99518472667219,48.09801714032957 L 99.0,48.00000000000001 L 99.0,48.0 L 99.0,32.0 L 108.0,32.0 L 107.90198285967044,31.995184726672196 L 107.80490967798387,31.98078528040323 L 107.70971532274554,31.95694033573221 L 107.6173165676349,31.923879532511286 L 107.528603263174,31.881921264348353 L 107.44442976698039,31.831469612302545 L 107.36560671583635,31.773010453362737 L 107.29289321881345,31.707106781186546 L 107.22698954663726,31.634393284163643 L 107.16853038769746,31.5555702330196 L 107.11807873565165,31.471396736825998 L 107.0761204674887,31.382683432365088 L 107.04305966426779,31.290284677254462 L 107.01921471959677,31.195090322016128 L 107.00481527332781,31.09801714032956 L 107.0,31.0 L 107.00481527332781,30.90198285967044 L 107.01921471959677,30.804909677983872 L 107.04305966426779,30.709715322745538 L 107.0761204674887,30.617316567634912 L 107.11807873565165,30.528603263174002 L 107.16853038769746,30.4444297669804 L 107.22698954663726,30.365606715836353 L 107.29289321881345,30.292893218813454 L 107.36560671583635,30.226989546637263 L 107.44442976698039,30.168530387697455 L 107.528603263174,30.118078735651647 L 107.61731656763492,30.076120467488714 L 107.70971532274554,30.04305966426779 L 107.80490967798387,30.01921471959677 L 107.90198285967044,30.004815273327804 L 108.0,30.0 z" /><path fill-rule="evenodd" fill="#66cc99" stroke="#555555" stroke-width="2.0" opacity="0.6" d="M 133.0,101.0 L 133.0,91.0 L 132.9951847266722,91.09801714032956 L 132.98078528040324,91.19509032201613 L 132.9569403357322,91.29028467725446 L 132.92387953251128,91.3826834323651 L 132.88192126434836,91.471396736826 L 132.83146961230256,91.55557023301961 L 132.77301045336273,91.63439328416365 L 132.70710678118655,91.70710678118655 L 132.63439328416365,91.77301045336274 L 132.5555702330196,91.83146961230254 L 132.471396736826,91.88192126434835 L 132.3826834323651,91.9238795325113 L 132.29028467725448,91.95694033573221 L 132.19509032201614,91.98078528040323 L 132.09801714032957,91.99518472667219 L 132.0,92.0 L 131.90198285967043,91.99518472667219 L 131.80490967798386,91.98078528040323 L 131.70971532274555,91.95694033573221 L 131.6173165676349,91.9238795325113 L 131.528603263174,91.88192126434835 L 131.4444297669804,91.83146961230254 L 131.36560671583635,91.77301045336274 L 131.29289321881345,91.70710678118655 L 131.22698954663727,91.63439328416365 L 131.16853038769744,91.55557023301961 L 131.11807873565164,91.471396736826 L 131.07612046748872,91.38268343236508 L 131.0430596642678,91.29028467725446 L 131.01921471959676,91.19509032201613 L 131.0048152733278,91.09801714032956 L 131.0,91.0 L 131.0,100.0 L 127.0,100.0 L 127.09801714032956,100.00481527332781 L 127.19509032201613,100.01921471959677 L 127.29028467725446,100.04305966426779 L 127.38268343236508,100.0761204674887 L 127.471396736826,100.11807873565165 L 127.55557023301961,100.16853038769746 L 127.63439328416365,100.22698954663727 L 127.70710678118655,100.29289321881345 L 127.77301045336274,100.36560671583635 L 127.83146961230254,100.44442976698039 L 127.88192126434835,100.528603263174 L 127.9238795325113,100.61731656763492 L 127.95694033573221,100.70971532274554 L 127.98078528040323,100.80490967798387 L 127.99518472667219,100.90198285967044 L 128.0,101.0 L 127.99518472667219,101.09801714032956 L 127.98078528040323,101.19509032201613 L 127.95694033573221,101.29028467725446 L 127.9238795325113,101.38268343236508 L 127.88192126434835,101.471396736826 L 127.83146961230254,101.55557023301961 L 127.77301045336274,101.63439328416365 L 127.70710678118655,101.70710678118655 L 127.63439328416365,101.77301045336273 L 127.55557023301961,101.83146961230254 L 127.471396736826,101.88192126434835 L 127.38268343236508,101.9238795325113 L 127.29028467725446,101.95694033573221 L 127.19509032201613,101.98078528040323 L 127.09801714032956,101.99518472667219 L 127.0,102.0 L 131.0,102.0 L 131.0,107.0 L 131.0048152733278,107.09801714032956 L 131.01921471959676,107.19509032201613 L 131.0430596642678,107.29028467725446 L 131.07612046748872,107.38268343236508 L 131.11807873565164,107.471396736826 L 131.16853038769744,107.55557023301961 L 131.22698954663727,107.63439328416365 L 131.29289321881345,107.70710678118655 L 131.36560671583635,107.77301045336274 L 131.4444297669804,107.83146961230254 L 131.528603263174,107.88192126434835 L 131.6173165676349,107.9238795325113 L 131.65761097262583,107.938297101154 L 131.70971532274552,107.95694033573221 L 131.80490967798386,107.98078528040323 L 131.90198285967043,107.99518472667219 L 132.0,108.0 L 139.0,108.0 L 138.90198285967043,107.99518472667219 L 138.80490967798386,107.98078528040323 L 138.70971532274552,107.95694033573221 L 138.6173165676349,107.92387953251128 L 138.528603263174,107.88192126434835 L 138.4444297669804,107.83146961230254 L 138.36560671583635,107.77301045336273 L 138.29289321881345,107.70710678118655 L 138.22698954663727,107.63439328416365 L 138.16853038769744,107.55557023301961 L 138.11807873565164,107.471396736826 L 138.07612046748872,107.38268343236508 L 138.0430596642678,107.29028467725446 L 138.01921471959676,107.19509032201613 L 138.0048152733278,107.09801714032956 L 138.0,107.0 L 138.0048152733278,106.90198285967044 L 138.01921471959676,106.80490967798387 L 138.0430596642678,106.70971532274554 L 138.07612046748872,106.61731656763492 L 138.11807873565164,106.528603263174 L 138.16853038769744,106.44442976698039 L 138.22698954663727,106.36560671583635 L 138.29289321881345,106.29289321881345 L 138.36560671583635,106.22698954663727 L 138.4444297669804,106.16853038769746 L 138.528603263174,106.11807873565165 L 138.6173165676349,106.0761204674887 L 138.70971532274552,106.04305966426779 L 138.80490967798386,106.01921471959677 L 138.90198285967043,106.00481527332781 L 139.0,106.0 L 133.0,106.0 L 133.0,101.0 z" /></g></g></svg>